<mxfile host="app.diagrams.net" agent="Mozilla/5.0 (X11; Ubuntu; Linux x86_64; rv:136.0) Gecko/20100101 Firefox/136.0" version="26.1.1">
  <diagram name="Page-1" id="91IJnuPR4kSbELg-eVUo">
    <mxGraphModel dx="1654" dy="759" grid="1" gridSize="10" guides="1" tooltips="1" connect="1" arrows="1" fold="1" page="1" pageScale="1" pageWidth="3300" pageHeight="4681" math="0" shadow="0">
      <root>
        <mxCell id="0" />
        <mxCell id="1" parent="0" />
        <mxCell id="53dhwuM6Br3q9iEczrLD-4" value="" style="rounded=0;whiteSpace=wrap;html=1;" vertex="1" parent="1">
          <mxGeometry x="230" y="70" width="1130" height="870" as="geometry" />
        </mxCell>
        <mxCell id="8eSQCi-5qKKEa_gYqAhn-1" value="Modo" style="swimlane;fontStyle=1;align=center;verticalAlign=top;childLayout=stackLayout;horizontal=1;startSize=26;horizontalStack=0;resizeParent=1;resizeParentMax=0;resizeLast=0;collapsible=1;marginBottom=0;whiteSpace=wrap;html=1;" parent="1" vertex="1">
          <mxGeometry x="1090" y="445" width="160" height="104" as="geometry">
            <mxRectangle x="530" y="280" width="140" height="40" as="alternateBounds" />
          </mxGeometry>
        </mxCell>
        <mxCell id="8eSQCi-5qKKEa_gYqAhn-4" value="ON" style="text;strokeColor=none;fillColor=none;align=left;verticalAlign=top;spacingLeft=4;spacingRight=4;overflow=hidden;rotatable=0;points=[[0,0.5],[1,0.5]];portConstraint=eastwest;whiteSpace=wrap;html=1;" parent="8eSQCi-5qKKEa_gYqAhn-1" vertex="1">
          <mxGeometry y="26" width="160" height="26" as="geometry" />
        </mxCell>
        <mxCell id="8eSQCi-5qKKEa_gYqAhn-5" value="OFF" style="text;strokeColor=none;fillColor=none;align=left;verticalAlign=top;spacingLeft=4;spacingRight=4;overflow=hidden;rotatable=0;points=[[0,0.5],[1,0.5]];portConstraint=eastwest;whiteSpace=wrap;html=1;" parent="8eSQCi-5qKKEa_gYqAhn-1" vertex="1">
          <mxGeometry y="52" width="160" height="26" as="geometry" />
        </mxCell>
        <mxCell id="8eSQCi-5qKKEa_gYqAhn-6" value="ECO" style="text;strokeColor=none;fillColor=none;align=left;verticalAlign=top;spacingLeft=4;spacingRight=4;overflow=hidden;rotatable=0;points=[[0,0.5],[1,0.5]];portConstraint=eastwest;whiteSpace=wrap;html=1;" parent="8eSQCi-5qKKEa_gYqAhn-1" vertex="1">
          <mxGeometry y="78" width="160" height="26" as="geometry" />
        </mxCell>
        <mxCell id="53dhwuM6Br3q9iEczrLD-2" style="edgeStyle=orthogonalEdgeStyle;rounded=0;orthogonalLoop=1;jettySize=auto;html=1;endArrow=open;endFill=0;endSize=9;" edge="1" parent="1" source="8eSQCi-5qKKEa_gYqAhn-7" target="8eSQCi-5qKKEa_gYqAhn-1">
          <mxGeometry relative="1" as="geometry" />
        </mxCell>
        <mxCell id="8eSQCi-5qKKEa_gYqAhn-7" value="Lampada" style="swimlane;fontStyle=1;align=center;verticalAlign=top;childLayout=stackLayout;horizontal=1;startSize=26;horizontalStack=0;resizeParent=1;resizeParentMax=0;resizeLast=0;collapsible=1;marginBottom=0;whiteSpace=wrap;html=1;" parent="1" vertex="1">
          <mxGeometry x="710" y="110" width="300" height="774" as="geometry" />
        </mxCell>
        <mxCell id="8eSQCi-5qKKEa_gYqAhn-8" value="- modo : Modo" style="text;strokeColor=none;fillColor=none;align=left;verticalAlign=top;spacingLeft=4;spacingRight=4;overflow=hidden;rotatable=0;points=[[0,0.5],[1,0.5]];portConstraint=eastwest;whiteSpace=wrap;html=1;" parent="8eSQCi-5qKKEa_gYqAhn-7" vertex="1">
          <mxGeometry y="26" width="300" height="26" as="geometry" />
        </mxCell>
        <mxCell id="8eSQCi-5qKKEa_gYqAhn-10" value="- cpSOn : double" style="text;strokeColor=none;fillColor=none;align=left;verticalAlign=top;spacingLeft=4;spacingRight=4;overflow=hidden;rotatable=0;points=[[0,0.5],[1,0.5]];portConstraint=eastwest;whiteSpace=wrap;html=1;" parent="8eSQCi-5qKKEa_gYqAhn-7" vertex="1">
          <mxGeometry y="52" width="300" height="26" as="geometry" />
        </mxCell>
        <mxCell id="8eSQCi-5qKKEa_gYqAhn-11" value="- cpSEco : double" style="text;strokeColor=none;fillColor=none;align=left;verticalAlign=top;spacingLeft=4;spacingRight=4;overflow=hidden;rotatable=0;points=[[0,0.5],[1,0.5]];portConstraint=eastwest;whiteSpace=wrap;html=1;" parent="8eSQCi-5qKKEa_gYqAhn-7" vertex="1">
          <mxGeometry y="78" width="300" height="26" as="geometry" />
        </mxCell>
        <mxCell id="8eSQCi-5qKKEa_gYqAhn-12" value="- consumoTotal : double" style="text;strokeColor=none;fillColor=none;align=left;verticalAlign=top;spacingLeft=4;spacingRight=4;overflow=hidden;rotatable=0;points=[[0,0.5],[1,0.5]];portConstraint=eastwest;whiteSpace=wrap;html=1;" parent="8eSQCi-5qKKEa_gYqAhn-7" vertex="1">
          <mxGeometry y="104" width="300" height="26" as="geometry" />
        </mxCell>
        <mxCell id="8eSQCi-5qKKEa_gYqAhn-13" value="- consumoPeriodo : double" style="text;strokeColor=none;fillColor=none;align=left;verticalAlign=top;spacingLeft=4;spacingRight=4;overflow=hidden;rotatable=0;points=[[0,0.5],[1,0.5]];portConstraint=eastwest;whiteSpace=wrap;html=1;" parent="8eSQCi-5qKKEa_gYqAhn-7" vertex="1">
          <mxGeometry y="130" width="300" height="26" as="geometry" />
        </mxCell>
        <mxCell id="8eSQCi-5qKKEa_gYqAhn-14" value="- stamp : long" style="text;strokeColor=none;fillColor=none;align=left;verticalAlign=top;spacingLeft=4;spacingRight=4;overflow=hidden;rotatable=0;points=[[0,0.5],[1,0.5]];portConstraint=eastwest;whiteSpace=wrap;html=1;" parent="8eSQCi-5qKKEa_gYqAhn-7" vertex="1">
          <mxGeometry y="156" width="300" height="26" as="geometry" />
        </mxCell>
        <mxCell id="8eSQCi-5qKKEa_gYqAhn-9" value="" style="line;strokeWidth=1;fillColor=none;align=left;verticalAlign=middle;spacingTop=-1;spacingLeft=3;spacingRight=3;rotatable=0;labelPosition=right;points=[];portConstraint=eastwest;strokeColor=inherit;" parent="8eSQCi-5qKKEa_gYqAhn-7" vertex="1">
          <mxGeometry y="182" width="300" height="8" as="geometry" />
        </mxCell>
        <mxCell id="8eSQCi-5qKKEa_gYqAhn-15" value="+ Lampada()" style="text;strokeColor=none;fillColor=none;align=left;verticalAlign=top;spacingLeft=4;spacingRight=4;overflow=hidden;rotatable=0;points=[[0,0.5],[1,0.5]];portConstraint=eastwest;whiteSpace=wrap;html=1;" parent="8eSQCi-5qKKEa_gYqAhn-7" vertex="1">
          <mxGeometry y="190" width="300" height="26" as="geometry" />
        </mxCell>
        <mxCell id="8eSQCi-5qKKEa_gYqAhn-16" value="+ Lampada(l : Lampada)" style="text;strokeColor=none;fillColor=none;align=left;verticalAlign=top;spacingLeft=4;spacingRight=4;overflow=hidden;rotatable=0;points=[[0,0.5],[1,0.5]];portConstraint=eastwest;whiteSpace=wrap;html=1;" parent="8eSQCi-5qKKEa_gYqAhn-7" vertex="1">
          <mxGeometry y="216" width="300" height="26" as="geometry" />
        </mxCell>
        <mxCell id="8eSQCi-5qKKEa_gYqAhn-17" value="+ Lampada(x : Modo, cpsE : double, cpsO : double, &lt;span style=&quot;white-space: pre;&quot;&gt;&#x9;&lt;/span&gt;&lt;span style=&quot;white-space: pre;&quot;&gt;&#x9;&lt;/span&gt;&amp;nbsp;&amp;nbsp; cT : double, pC : double)" style="text;strokeColor=none;fillColor=none;align=left;verticalAlign=top;spacingLeft=4;spacingRight=4;overflow=hidden;rotatable=0;points=[[0,0.5],[1,0.5]];portConstraint=eastwest;whiteSpace=wrap;html=1;" parent="8eSQCi-5qKKEa_gYqAhn-7" vertex="1">
          <mxGeometry y="242" width="300" height="38" as="geometry" />
        </mxCell>
        <mxCell id="8eSQCi-5qKKEa_gYqAhn-18" value="+ getModo() : Modo" style="text;strokeColor=none;fillColor=none;align=left;verticalAlign=top;spacingLeft=4;spacingRight=4;overflow=hidden;rotatable=0;points=[[0,0.5],[1,0.5]];portConstraint=eastwest;whiteSpace=wrap;html=1;" parent="8eSQCi-5qKKEa_gYqAhn-7" vertex="1">
          <mxGeometry y="280" width="300" height="26" as="geometry" />
        </mxCell>
        <mxCell id="8eSQCi-5qKKEa_gYqAhn-19" value="+ setModo(m : Modo)" style="text;strokeColor=none;fillColor=none;align=left;verticalAlign=top;spacingLeft=4;spacingRight=4;overflow=hidden;rotatable=0;points=[[0,0.5],[1,0.5]];portConstraint=eastwest;whiteSpace=wrap;html=1;" parent="8eSQCi-5qKKEa_gYqAhn-7" vertex="1">
          <mxGeometry y="306" width="300" height="26" as="geometry" />
        </mxCell>
        <mxCell id="8eSQCi-5qKKEa_gYqAhn-20" value="+ getStamp() : long" style="text;strokeColor=none;fillColor=none;align=left;verticalAlign=top;spacingLeft=4;spacingRight=4;overflow=hidden;rotatable=0;points=[[0,0.5],[1,0.5]];portConstraint=eastwest;whiteSpace=wrap;html=1;" parent="8eSQCi-5qKKEa_gYqAhn-7" vertex="1">
          <mxGeometry y="332" width="300" height="26" as="geometry" />
        </mxCell>
        <mxCell id="8eSQCi-5qKKEa_gYqAhn-21" value="+ getCpSEco() : double" style="text;strokeColor=none;fillColor=none;align=left;verticalAlign=top;spacingLeft=4;spacingRight=4;overflow=hidden;rotatable=0;points=[[0,0.5],[1,0.5]];portConstraint=eastwest;whiteSpace=wrap;html=1;" parent="8eSQCi-5qKKEa_gYqAhn-7" vertex="1">
          <mxGeometry y="358" width="300" height="26" as="geometry" />
        </mxCell>
        <mxCell id="8eSQCi-5qKKEa_gYqAhn-22" value="+ setCpSEco(x : double)" style="text;strokeColor=none;fillColor=none;align=left;verticalAlign=top;spacingLeft=4;spacingRight=4;overflow=hidden;rotatable=0;points=[[0,0.5],[1,0.5]];portConstraint=eastwest;whiteSpace=wrap;html=1;" parent="8eSQCi-5qKKEa_gYqAhn-7" vertex="1">
          <mxGeometry y="384" width="300" height="26" as="geometry" />
        </mxCell>
        <mxCell id="8eSQCi-5qKKEa_gYqAhn-23" value="+ getConsumoTotal() : double" style="text;strokeColor=none;fillColor=none;align=left;verticalAlign=top;spacingLeft=4;spacingRight=4;overflow=hidden;rotatable=0;points=[[0,0.5],[1,0.5]];portConstraint=eastwest;whiteSpace=wrap;html=1;" parent="8eSQCi-5qKKEa_gYqAhn-7" vertex="1">
          <mxGeometry y="410" width="300" height="26" as="geometry" />
        </mxCell>
        <mxCell id="8eSQCi-5qKKEa_gYqAhn-24" value="+ setConsumoTotal(cp : double)" style="text;strokeColor=none;fillColor=none;align=left;verticalAlign=top;spacingLeft=4;spacingRight=4;overflow=hidden;rotatable=0;points=[[0,0.5],[1,0.5]];portConstraint=eastwest;whiteSpace=wrap;html=1;" parent="8eSQCi-5qKKEa_gYqAhn-7" vertex="1">
          <mxGeometry y="436" width="300" height="26" as="geometry" />
        </mxCell>
        <mxCell id="8eSQCi-5qKKEa_gYqAhn-25" value="+ getConsumoPeriodo() : double" style="text;strokeColor=none;fillColor=none;align=left;verticalAlign=top;spacingLeft=4;spacingRight=4;overflow=hidden;rotatable=0;points=[[0,0.5],[1,0.5]];portConstraint=eastwest;whiteSpace=wrap;html=1;" parent="8eSQCi-5qKKEa_gYqAhn-7" vertex="1">
          <mxGeometry y="462" width="300" height="26" as="geometry" />
        </mxCell>
        <mxCell id="8eSQCi-5qKKEa_gYqAhn-26" value="+ setConsumoPeridod(pC : double)" style="text;strokeColor=none;fillColor=none;align=left;verticalAlign=top;spacingLeft=4;spacingRight=4;overflow=hidden;rotatable=0;points=[[0,0.5],[1,0.5]];portConstraint=eastwest;whiteSpace=wrap;html=1;" parent="8eSQCi-5qKKEa_gYqAhn-7" vertex="1">
          <mxGeometry y="488" width="300" height="26" as="geometry" />
        </mxCell>
        <mxCell id="8eSQCi-5qKKEa_gYqAhn-27" value="+ lampON()" style="text;strokeColor=none;fillColor=none;align=left;verticalAlign=top;spacingLeft=4;spacingRight=4;overflow=hidden;rotatable=0;points=[[0,0.5],[1,0.5]];portConstraint=eastwest;whiteSpace=wrap;html=1;" parent="8eSQCi-5qKKEa_gYqAhn-7" vertex="1">
          <mxGeometry y="514" width="300" height="26" as="geometry" />
        </mxCell>
        <mxCell id="8eSQCi-5qKKEa_gYqAhn-28" value="+ lampOFF()" style="text;strokeColor=none;fillColor=none;align=left;verticalAlign=top;spacingLeft=4;spacingRight=4;overflow=hidden;rotatable=0;points=[[0,0.5],[1,0.5]];portConstraint=eastwest;whiteSpace=wrap;html=1;" parent="8eSQCi-5qKKEa_gYqAhn-7" vertex="1">
          <mxGeometry y="540" width="300" height="26" as="geometry" />
        </mxCell>
        <mxCell id="8eSQCi-5qKKEa_gYqAhn-29" value="+ lampECO()" style="text;strokeColor=none;fillColor=none;align=left;verticalAlign=top;spacingLeft=4;spacingRight=4;overflow=hidden;rotatable=0;points=[[0,0.5],[1,0.5]];portConstraint=eastwest;whiteSpace=wrap;html=1;" parent="8eSQCi-5qKKEa_gYqAhn-7" vertex="1">
          <mxGeometry y="566" width="300" height="26" as="geometry" />
        </mxCell>
        <mxCell id="8eSQCi-5qKKEa_gYqAhn-30" value="+ resetPeriodo()" style="text;strokeColor=none;fillColor=none;align=left;verticalAlign=top;spacingLeft=4;spacingRight=4;overflow=hidden;rotatable=0;points=[[0,0.5],[1,0.5]];portConstraint=eastwest;whiteSpace=wrap;html=1;" parent="8eSQCi-5qKKEa_gYqAhn-7" vertex="1">
          <mxGeometry y="592" width="300" height="26" as="geometry" />
        </mxCell>
        <mxCell id="8eSQCi-5qKKEa_gYqAhn-31" value="+ periodoConsumo() : double" style="text;strokeColor=none;fillColor=none;align=left;verticalAlign=top;spacingLeft=4;spacingRight=4;overflow=hidden;rotatable=0;points=[[0,0.5],[1,0.5]];portConstraint=eastwest;whiteSpace=wrap;html=1;" parent="8eSQCi-5qKKEa_gYqAhn-7" vertex="1">
          <mxGeometry y="618" width="300" height="26" as="geometry" />
        </mxCell>
        <mxCell id="8eSQCi-5qKKEa_gYqAhn-32" value="+ totalConsumo() : double" style="text;strokeColor=none;fillColor=none;align=left;verticalAlign=top;spacingLeft=4;spacingRight=4;overflow=hidden;rotatable=0;points=[[0,0.5],[1,0.5]];portConstraint=eastwest;whiteSpace=wrap;html=1;" parent="8eSQCi-5qKKEa_gYqAhn-7" vertex="1">
          <mxGeometry y="644" width="300" height="26" as="geometry" />
        </mxCell>
        <mxCell id="8eSQCi-5qKKEa_gYqAhn-33" value="- atualizaConsumo()" style="text;strokeColor=none;fillColor=none;align=left;verticalAlign=top;spacingLeft=4;spacingRight=4;overflow=hidden;rotatable=0;points=[[0,0.5],[1,0.5]];portConstraint=eastwest;whiteSpace=wrap;html=1;" parent="8eSQCi-5qKKEa_gYqAhn-7" vertex="1">
          <mxGeometry y="670" width="300" height="26" as="geometry" />
        </mxCell>
        <mxCell id="8eSQCi-5qKKEa_gYqAhn-34" value="+ clone() : Lampada" style="text;strokeColor=none;fillColor=none;align=left;verticalAlign=top;spacingLeft=4;spacingRight=4;overflow=hidden;rotatable=0;points=[[0,0.5],[1,0.5]];portConstraint=eastwest;whiteSpace=wrap;html=1;" parent="8eSQCi-5qKKEa_gYqAhn-7" vertex="1">
          <mxGeometry y="696" width="300" height="26" as="geometry" />
        </mxCell>
        <mxCell id="8eSQCi-5qKKEa_gYqAhn-35" value="+ toString() : String" style="text;strokeColor=none;fillColor=none;align=left;verticalAlign=top;spacingLeft=4;spacingRight=4;overflow=hidden;rotatable=0;points=[[0,0.5],[1,0.5]];portConstraint=eastwest;whiteSpace=wrap;html=1;" parent="8eSQCi-5qKKEa_gYqAhn-7" vertex="1">
          <mxGeometry y="722" width="300" height="26" as="geometry" />
        </mxCell>
        <mxCell id="8eSQCi-5qKKEa_gYqAhn-40" value="+ equals(o : Object) : boolean" style="text;strokeColor=none;fillColor=none;align=left;verticalAlign=top;spacingLeft=4;spacingRight=4;overflow=hidden;rotatable=0;points=[[0,0.5],[1,0.5]];portConstraint=eastwest;whiteSpace=wrap;html=1;" parent="8eSQCi-5qKKEa_gYqAhn-7" vertex="1">
          <mxGeometry y="748" width="300" height="26" as="geometry" />
        </mxCell>
        <mxCell id="53dhwuM6Br3q9iEczrLD-3" style="edgeStyle=orthogonalEdgeStyle;rounded=0;orthogonalLoop=1;jettySize=auto;html=1;startArrow=diamondThin;startFill=1;targetPerimeterSpacing=0;sourcePerimeterSpacing=0;startSize=13;endArrow=open;endFill=0;endSize=10;" edge="1" parent="1" source="8eSQCi-5qKKEa_gYqAhn-41" target="8eSQCi-5qKKEa_gYqAhn-7">
          <mxGeometry relative="1" as="geometry" />
        </mxCell>
        <mxCell id="8eSQCi-5qKKEa_gYqAhn-41" value="Casa Inteligente" style="swimlane;fontStyle=1;align=center;verticalAlign=top;childLayout=stackLayout;horizontal=1;startSize=26;horizontalStack=0;resizeParent=1;resizeParentMax=0;resizeLast=0;collapsible=1;marginBottom=0;whiteSpace=wrap;html=1;" parent="1" vertex="1">
          <mxGeometry x="320" y="246" width="250" height="502" as="geometry" />
        </mxCell>
        <mxCell id="8eSQCi-5qKKEa_gYqAhn-43" value="" style="line;strokeWidth=1;fillColor=none;align=left;verticalAlign=middle;spacingTop=-1;spacingLeft=3;spacingRight=3;rotatable=0;labelPosition=right;points=[];portConstraint=eastwest;strokeColor=inherit;" parent="8eSQCi-5qKKEa_gYqAhn-41" vertex="1">
          <mxGeometry y="26" width="250" height="8" as="geometry" />
        </mxCell>
        <mxCell id="8eSQCi-5qKKEa_gYqAhn-45" value="+ CasaInteligente()" style="text;strokeColor=none;fillColor=none;align=left;verticalAlign=top;spacingLeft=4;spacingRight=4;overflow=hidden;rotatable=0;points=[[0,0.5],[1,0.5]];portConstraint=eastwest;whiteSpace=wrap;html=1;" parent="8eSQCi-5qKKEa_gYqAhn-41" vertex="1">
          <mxGeometry y="34" width="250" height="26" as="geometry" />
        </mxCell>
        <mxCell id="8eSQCi-5qKKEa_gYqAhn-44" value="+ CasaInteligente(outro : CasaInteligente" style="text;strokeColor=none;fillColor=none;align=left;verticalAlign=top;spacingLeft=4;spacingRight=4;overflow=hidden;rotatable=0;points=[[0,0.5],[1,0.5]];portConstraint=eastwest;whiteSpace=wrap;html=1;" parent="8eSQCi-5qKKEa_gYqAhn-41" vertex="1">
          <mxGeometry y="60" width="250" height="26" as="geometry" />
        </mxCell>
        <mxCell id="8eSQCi-5qKKEa_gYqAhn-46" value="+ get_lampadas() : List&amp;lt;Lampada&amp;gt;" style="text;strokeColor=none;fillColor=none;align=left;verticalAlign=top;spacingLeft=4;spacingRight=4;overflow=hidden;rotatable=0;points=[[0,0.5],[1,0.5]];portConstraint=eastwest;whiteSpace=wrap;html=1;" parent="8eSQCi-5qKKEa_gYqAhn-41" vertex="1">
          <mxGeometry y="86" width="250" height="26" as="geometry" />
        </mxCell>
        <mxCell id="8eSQCi-5qKKEa_gYqAhn-47" value="+ adiciona_lampada(l : Lampada)" style="text;strokeColor=none;fillColor=none;align=left;verticalAlign=top;spacingLeft=4;spacingRight=4;overflow=hidden;rotatable=0;points=[[0,0.5],[1,0.5]];portConstraint=eastwest;whiteSpace=wrap;html=1;" parent="8eSQCi-5qKKEa_gYqAhn-41" vertex="1">
          <mxGeometry y="112" width="250" height="26" as="geometry" />
        </mxCell>
        <mxCell id="8eSQCi-5qKKEa_gYqAhn-48" value="+ liga_lampada_normal(index : int)" style="text;strokeColor=none;fillColor=none;align=left;verticalAlign=top;spacingLeft=4;spacingRight=4;overflow=hidden;rotatable=0;points=[[0,0.5],[1,0.5]];portConstraint=eastwest;whiteSpace=wrap;html=1;" parent="8eSQCi-5qKKEa_gYqAhn-41" vertex="1">
          <mxGeometry y="138" width="250" height="26" as="geometry" />
        </mxCell>
        <mxCell id="8eSQCi-5qKKEa_gYqAhn-49" value="+ liga_lampada_eco(index : int)" style="text;strokeColor=none;fillColor=none;align=left;verticalAlign=top;spacingLeft=4;spacingRight=4;overflow=hidden;rotatable=0;points=[[0,0.5],[1,0.5]];portConstraint=eastwest;whiteSpace=wrap;html=1;" parent="8eSQCi-5qKKEa_gYqAhn-41" vertex="1">
          <mxGeometry y="164" width="250" height="26" as="geometry" />
        </mxCell>
        <mxCell id="8eSQCi-5qKKEa_gYqAhn-50" value="+ quantas_modo_ECO() : int" style="text;strokeColor=none;fillColor=none;align=left;verticalAlign=top;spacingLeft=4;spacingRight=4;overflow=hidden;rotatable=0;points=[[0,0.5],[1,0.5]];portConstraint=eastwest;whiteSpace=wrap;html=1;" parent="8eSQCi-5qKKEa_gYqAhn-41" vertex="1">
          <mxGeometry y="190" width="250" height="26" as="geometry" />
        </mxCell>
        <mxCell id="8eSQCi-5qKKEa_gYqAhn-51" value="+ remove_lampada(index : int)" style="text;strokeColor=none;fillColor=none;align=left;verticalAlign=top;spacingLeft=4;spacingRight=4;overflow=hidden;rotatable=0;points=[[0,0.5],[1,0.5]];portConstraint=eastwest;whiteSpace=wrap;html=1;" parent="8eSQCi-5qKKEa_gYqAhn-41" vertex="1">
          <mxGeometry y="216" width="250" height="26" as="geometry" />
        </mxCell>
        <mxCell id="8eSQCi-5qKKEa_gYqAhn-52" value="+ liga_todas_ECO()" style="text;strokeColor=none;fillColor=none;align=left;verticalAlign=top;spacingLeft=4;spacingRight=4;overflow=hidden;rotatable=0;points=[[0,0.5],[1,0.5]];portConstraint=eastwest;whiteSpace=wrap;html=1;" parent="8eSQCi-5qKKEa_gYqAhn-41" vertex="1">
          <mxGeometry y="242" width="250" height="26" as="geometry" />
        </mxCell>
        <mxCell id="8eSQCi-5qKKEa_gYqAhn-53" value="+ liga_todas_MAX()" style="text;strokeColor=none;fillColor=none;align=left;verticalAlign=top;spacingLeft=4;spacingRight=4;overflow=hidden;rotatable=0;points=[[0,0.5],[1,0.5]];portConstraint=eastwest;whiteSpace=wrap;html=1;" parent="8eSQCi-5qKKEa_gYqAhn-41" vertex="1">
          <mxGeometry y="268" width="250" height="26" as="geometry" />
        </mxCell>
        <mxCell id="8eSQCi-5qKKEa_gYqAhn-55" value="+ consumo_total() : double" style="text;strokeColor=none;fillColor=none;align=left;verticalAlign=top;spacingLeft=4;spacingRight=4;overflow=hidden;rotatable=0;points=[[0,0.5],[1,0.5]];portConstraint=eastwest;whiteSpace=wrap;html=1;" parent="8eSQCi-5qKKEa_gYqAhn-41" vertex="1">
          <mxGeometry y="294" width="250" height="26" as="geometry" />
        </mxCell>
        <mxCell id="8eSQCi-5qKKEa_gYqAhn-56" value="+ mais_gastadora() : Lampada" style="text;strokeColor=none;fillColor=none;align=left;verticalAlign=top;spacingLeft=4;spacingRight=4;overflow=hidden;rotatable=0;points=[[0,0.5],[1,0.5]];portConstraint=eastwest;whiteSpace=wrap;html=1;" parent="8eSQCi-5qKKEa_gYqAhn-41" vertex="1">
          <mxGeometry y="320" width="250" height="26" as="geometry" />
        </mxCell>
        <mxCell id="8eSQCi-5qKKEa_gYqAhn-57" value="+ lampadas_ECO() : Set&amp;lt;Lampada&amp;gt;" style="text;strokeColor=none;fillColor=none;align=left;verticalAlign=top;spacingLeft=4;spacingRight=4;overflow=hidden;rotatable=0;points=[[0,0.5],[1,0.5]];portConstraint=eastwest;whiteSpace=wrap;html=1;" parent="8eSQCi-5qKKEa_gYqAhn-41" vertex="1">
          <mxGeometry y="346" width="250" height="26" as="geometry" />
        </mxCell>
        <mxCell id="8eSQCi-5qKKEa_gYqAhn-58" value="+ reset()" style="text;strokeColor=none;fillColor=none;align=left;verticalAlign=top;spacingLeft=4;spacingRight=4;overflow=hidden;rotatable=0;points=[[0,0.5],[1,0.5]];portConstraint=eastwest;whiteSpace=wrap;html=1;" parent="8eSQCi-5qKKEa_gYqAhn-41" vertex="1">
          <mxGeometry y="372" width="250" height="26" as="geometry" />
        </mxCell>
        <mxCell id="8eSQCi-5qKKEa_gYqAhn-59" value="+ podium_economia() : Set&amp;lt;Lampada&amp;gt;" style="text;strokeColor=none;fillColor=none;align=left;verticalAlign=top;spacingLeft=4;spacingRight=4;overflow=hidden;rotatable=0;points=[[0,0.5],[1,0.5]];portConstraint=eastwest;whiteSpace=wrap;html=1;" parent="8eSQCi-5qKKEa_gYqAhn-41" vertex="1">
          <mxGeometry y="398" width="250" height="26" as="geometry" />
        </mxCell>
        <mxCell id="8eSQCi-5qKKEa_gYqAhn-54" value="+ equals(outro : Object) : boolean" style="text;strokeColor=none;fillColor=none;align=left;verticalAlign=top;spacingLeft=4;spacingRight=4;overflow=hidden;rotatable=0;points=[[0,0.5],[1,0.5]];portConstraint=eastwest;whiteSpace=wrap;html=1;" parent="8eSQCi-5qKKEa_gYqAhn-41" vertex="1">
          <mxGeometry y="424" width="250" height="26" as="geometry" />
        </mxCell>
        <mxCell id="8eSQCi-5qKKEa_gYqAhn-60" value="+ clone() : CasaInteligente" style="text;strokeColor=none;fillColor=none;align=left;verticalAlign=top;spacingLeft=4;spacingRight=4;overflow=hidden;rotatable=0;points=[[0,0.5],[1,0.5]];portConstraint=eastwest;whiteSpace=wrap;html=1;" parent="8eSQCi-5qKKEa_gYqAhn-41" vertex="1">
          <mxGeometry y="450" width="250" height="26" as="geometry" />
        </mxCell>
        <mxCell id="8eSQCi-5qKKEa_gYqAhn-61" value="+ toString() : String" style="text;strokeColor=none;fillColor=none;align=left;verticalAlign=top;spacingLeft=4;spacingRight=4;overflow=hidden;rotatable=0;points=[[0,0.5],[1,0.5]];portConstraint=eastwest;whiteSpace=wrap;html=1;" parent="8eSQCi-5qKKEa_gYqAhn-41" vertex="1">
          <mxGeometry y="476" width="250" height="26" as="geometry" />
        </mxCell>
        <mxCell id="53dhwuM6Br3q9iEczrLD-1" value="- lampadas" style="text;html=1;align=center;verticalAlign=middle;resizable=0;points=[];autosize=1;strokeColor=none;fillColor=none;" vertex="1" parent="1">
          <mxGeometry x="610" y="470" width="80" height="30" as="geometry" />
        </mxCell>
      </root>
    </mxGraphModel>
  </diagram>
</mxfile>
